<svg width="128" height="121" viewBox="0 0 128 121" fill="none" xmlns="http://www.w3.org/2000/svg">
<g id="Group 34">
<path id="Vector 56" d="M56.6059 6.11051C52.1693 6.11051 19.6585 37.7487 19.6499 44.3843C19.6413 51.0199 54.887 82.6581 54.887 82.6581C54.887 82.6581 65.5255 117.105 69.4975 118.322C73.4696 119.54 79.8108 118.322 79.8108 118.322C80.6703 119.772 82.733 122.15 84.1081 120.062C85.4832 117.974 98.1843 116.655 100.437 113.973C102.691 111.291 127.951 82.6581 127.08 80.0485C126.61 78.6403 111.401 70.5958 106.175 51.9921C100.948 33.3885 96.5315 17.3277 94.4214 7.85023C90.9836 7.85023 83.7643 7.50228 82.3892 6.11051C80.6703 4.37079 77.2325 3.50093 75.5136 4.37079C74.1385 5.06668 70.93 6.98037 69.4975 7.85023C69.4975 7.85023 61.0425 6.11051 56.6059 6.11051Z" fill="url(#paint0_linear_0_1)"/>
<path id="Vector 57" d="M94.3066 7.86784C91.3203 3.33807 67.8842 31.9742 57.2578 46.2057C65.0122 55.4997 81.3826 77.0501 84.829 88.9C88.2754 100.75 96.6042 110.683 100.338 114.168C100.338 114.168 128.501 83.2426 127.047 80.1869C126.353 78.7278 114.986 65.9628 107.564 49.3995C99.4439 31.2753 95.207 9.2336 94.3066 7.86784Z" fill="#98E7DF"/>
<ellipse id="Ellipse 12" cx="5.18373" cy="4.34101" rx="5.18373" ry="4.34101" transform="matrix(0.848737 -0.528815 0.520518 0.853851 35.1152 32.1863)" fill="#2EC2B4"/>
<path id="Vector 58" d="M19.1546 5.63796C25.146 4.77922 39.0277 22.704 45.2195 31.7738C44.4981 35.2578 41.476 35.7941 38.4692 35.7941C33.6548 27.7103 22.8972 11.8085 18.3823 12.8717L6.14343 21.9114C3.53191 21.1547 2.86033 21.1547 1.55098 17.8695C9.22732 10.4754 13.1631 6.49671 19.1546 5.63796Z" fill="#FCEDF0"/>
<path id="Vector 59" d="M71.0845 50.843L71.4246 47.0214L66.3451 45.3864L69.7653 53.5374L71.0845 50.843ZM75.459 52.2511L75.1188 56.0727L77.5348 56.8504L77.1998 51.5328L75.459 52.2511ZM74.8816 43.0874L76.2008 40.393L72.3471 31.2089L73.1408 43.8057L74.8816 43.0874ZM77.1115 65.2068L78.4307 62.5124L72.4036 48.1486L71.0845 50.843L69.7653 53.5374L75.7923 67.9012L77.1115 65.2068ZM71.0845 50.843L70.7443 54.6646L75.1188 56.0727L75.459 52.2511L75.7991 48.4295L71.4246 47.0214L71.0845 50.843ZM75.459 52.2511L77.1998 51.5328L76.6224 42.3692L74.8816 43.0874L73.1408 43.8057L73.7181 52.9694L75.459 52.2511ZM74.8816 43.0874L73.5624 45.7818L79.5894 60.1456L80.9086 57.4512L82.2278 54.7568L76.2008 40.393L74.8816 43.0874Z" fill="#ED8495"/>
<g id="Ellipse 13">
<mask id="path-6-inside-1_0_1" fill="white">
<ellipse cx="4.2123" cy="6.99374" rx="4.2123" ry="6.99374" transform="matrix(0.417825 -0.908527 0.409155 0.912465 79.2686 41.6345)"/>
</mask>
<path d="M85.6501 40.3621L83.1431 45.8132C83.5632 46.7501 83.715 47.5726 83.7439 47.8403C83.7566 47.958 83.7201 47.7293 83.762 47.2319C83.8083 46.6832 83.9516 45.8462 84.2967 45.0958L86.7516 50.5706L89.2065 56.0454C90.9144 52.3319 90.9236 47.4084 90.5721 44.1505C90.2023 40.7234 89.3173 37.4985 88.157 34.9109L85.6501 40.3621ZM86.7516 50.5706L84.2967 45.0958C84.6418 44.3454 85.0236 44.0404 85.2734 43.9456C85.4998 43.8596 85.6031 43.9428 85.5499 43.9133C85.4287 43.8463 85.0571 43.5018 84.637 42.5649L82.1301 48.0161L79.6231 53.4672C80.7834 56.0548 82.2366 58.0443 83.7881 58.9019C85.2629 59.7171 87.4987 59.7589 89.2065 56.0454L86.7516 50.5706ZM82.1301 48.0161L84.637 42.5649C84.2169 41.628 84.0652 40.8055 84.0363 40.5378C84.0236 40.4202 84.06 40.6489 84.0181 41.1463C83.9719 41.6949 83.8286 42.5319 83.4835 43.2823L81.0286 37.8075L78.5736 32.3327C76.8658 36.0462 76.8565 40.9698 77.2081 44.2277C77.5778 47.6547 78.4629 50.8797 79.6231 53.4672L82.1301 48.0161ZM81.0286 37.8075L83.4835 43.2823C83.1384 44.0327 82.7565 44.3377 82.5068 44.4325C82.2804 44.5185 82.177 44.4354 82.2303 44.4648C82.3515 44.5318 82.723 44.8764 83.1431 45.8132L85.6501 40.3621L88.157 34.9109C86.9968 32.3234 85.5436 30.3339 83.9921 29.4763C82.5172 28.661 80.2814 28.6192 78.5736 32.3327L81.0286 37.8075Z" fill="#ED8495" mask="url(#path-6-inside-1_0_1)"/>
</g>
<path id="Vector 60" d="M93.9227 48.9297L92.6608 51.6514L93.8797 54.3926L95.1417 51.6709L93.9227 48.9297ZM87.7227 34.9871L86.4607 37.7087L92.6608 51.6514L93.9227 48.9297L95.1846 46.2081L88.9846 32.2654L87.7227 34.9871ZM93.9227 48.9297L95.1417 51.6709L97.7995 45.9387L96.5805 43.1975L95.3616 40.4563L92.7038 46.1885L93.9227 48.9297Z" fill="#ED8495"/>
<path id="Vector 61" d="M90.1157 24.4268L88.9266 27.181L95.4949 40.954L96.6841 38.1998L97.8733 35.4455L91.3049 21.6725L90.1157 24.4268Z" fill="#ED8495"/>
</g>
<defs>
<linearGradient id="paint0_linear_0_1" x1="24.6214" y1="4.02955" x2="122.222" y2="120.79" gradientUnits="userSpaceOnUse">
<stop stop-color="#5ED9CD"/>
<stop offset="1" stop-color="#021427"/>
</linearGradient>
</defs>
</svg>
